<svg width="66" height="71" xmlns="http://www.w3.org/2000/svg">
 <g>
  <title>background</title>
  <rect fill="none" id="canvas_background" height="73" width="68" y="-1" x="-1"/>
 </g>

 <g>
  <title>Layer 1</title>
  <g stroke="null" id="svg_13">
   <g id="svg_8" fill="#000000" transform="matrix(0.010713472927715083,0,0,-0.010462517654170762,-90.5718354130525,-18.87623290161749) ">
    <path fill="#ffffff" stroke="null" id="svg_9" d="m11509.41942,-2110.80077c-22,-39 -96,-175 -166,-302c-70,-126 -194,-351 -275,-500c-81,-148 -183,-333 -225,-410c-43,-77 -95,-171 -115,-210c-21,-38 -57,-104 -80,-145c-23,-41 -59,-106 -80,-145c-20,-38 -61,-113 -90,-165c-65,-117 -251,-455 -292,-530c-75,-136 -378,-689 -453,-825c-244,-443 -307,-559 -352,-645l-50,-95l288,290c159,160 696,701 1194,1204l905,913l-2,67c-1,36 -9,129 -18,206c-22,202 -32,301 -60,570c-14,132 -32,301 -40,375c-8,74 -19,189 -26,255c-17,178 -17,178 -63,92z"/>
    <path fill="#ffffff" stroke="null" id="svg_10" d="m11643.41942,-2159.80077c0,-8 4,-50 9,-94c6,-43 15,-128 21,-189c6,-60 15,-146 21,-190c5,-44 13,-125 19,-180c11,-117 27,-267 70,-675c6,-52 15,-135 20,-185c5,-49 16,-157 25,-240c24,-221 33,-309 44,-420c6,-55 17,-163 26,-240c8,-77 20,-183 25,-235c5,-52 16,-160 25,-240c9,-80 20,-188 25,-240c19,-189 9,-169 113,-223c150,-76 448,-231 832,-432c370,-194 568,-295 571,-292c3,3 -499,1120 -890,1982c-59,129 -172,379 -191,420c-12,28 -32,70 -43,95c-11,25 -38,86 -60,135c-22,50 -55,124 -75,165c-19,41 -157,347 -307,680c-150,333 -274,607 -276,609c-2,2 -4,-2 -4,-11z"/>
    <path fill="#ffffff" stroke="null" id="svg_11" d="m9749.41942,-5767.80077c-236,-236 -426,-430 -422,-430c8,0 2049,850 2055,856c2,2 -268,4 -600,4l-605,0l-428,-430z"/>
    <path fill="#ffffff" stroke="null" id="svg_12" d="m11363.41942,-5433.80077c-124,-53 -241,-101 -260,-109c-19,-7 -73,-30 -120,-50c-47,-20 -120,-50 -164,-67c-51,-20 -74,-33 -65,-38c8,-4 64,-18 124,-30c145,-29 157,-32 385,-80c107,-22 272,-57 365,-76c94,-19 188,-39 210,-44c22,-4 63,-13 90,-18c28,-6 138,-29 245,-52c107,-22 269,-56 360,-75c91,-19 242,-50 335,-70c306,-65 407,-85 419,-85c12,0 -68,44 -329,179c-99,52 -229,119 -290,151c-60,32 -177,92 -260,135c-82,43 -186,97 -230,120c-44,23 -161,84 -260,135c-99,51 -213,110 -253,131c-41,22 -74,39 -75,38c-1,0 -103,-43 -227,-95z"/>
   </g>
  </g>
  <text fill="#ffffff" stroke-width="0" stroke-opacity="null" fill-opacity="null" x="34.6927" y="60.357584" id="svg_2" font-size="24" font-family="'Simonetta', serif" text-anchor="start" xml:space="preserve" transform="matrix(1.0932247900039764,0,0,0.7084581944955931,-35.02972138468879,25.581887305546918) " stroke="null" font-weight="bold">Habit</text>
 </g>
</svg>